<svg width="723" height="813" viewBox="0 0 723 813" fill="none" xmlns="http://www.w3.org/2000/svg">
<ellipse cx="177.5" cy="743" rx="177.5" ry="20" fill="#A4A4A4"/>
<ellipse cx="482.5" cy="746" rx="177.5" ry="23" fill="#A4A4A4"/>
<ellipse cx="290.997" cy="772.132" rx="105.5" ry="29.0365" transform="rotate(6.12748 290.997 772.132)" fill="#A4A4A4"/>
<path d="M418.42 425.909C410.42 417.109 402.087 418.243 398.92 419.909C376.42 476.409 424.42 611.409 436.92 546.909C449.42 482.409 428.42 436.909 418.42 425.909Z" fill="#EDE9E8"/>
<path d="M83.6624 734.254C91.2624 739.454 140 737.667 161.5 736.5C148.833 713.333 113.662 666.754 89.6624 662.754C59.6624 657.754 3.5 623 23.5 674.5C43.5 726 74.1624 727.754 83.6624 734.254Z" fill="#3D3129"/>
<path d="M290.162 486.255C258.562 481.855 213.329 446.421 194.662 429.255C102.662 497.755 78.6623 634.755 82.6623 681.755C86.6623 728.755 141.662 735.255 156.662 735.755C168.662 736.155 186.996 750.588 194.662 757.755C241.829 760.755 342.262 765.755 366.662 761.755C397.162 756.755 440 708.5 463 669.5C481.4 638.3 444.5 561 431 533L415.162 488.755C413.662 480.921 408.162 467.155 398.162 474.755C385.662 484.255 329.662 491.755 290.162 486.255Z" fill="#E4DEDD"/>
<path d="M234.162 309.755C224.962 367.755 201.996 416.255 191.662 433.255C194.996 433.255 212.562 441.555 256.162 474.755C299.762 507.954 377.662 490.255 411.162 477.255C407.829 462.588 399.462 425.955 392.662 396.755C385.862 367.555 368.829 305.588 361.162 278.255C350.996 279.255 324.7 278 301.5 272C278.3 266 249.996 271.255 238.662 273.755C238.662 275.255 237.493 288.755 234.162 309.755Z" fill="#846651"/>
<path d="M275.662 690.255C296.862 695.055 311.162 722.588 315.662 735.755C306.662 748.255 284.162 775.655 266.162 785.255C243.662 797.255 212.162 775.255 200.662 763.755C189.162 752.255 184.162 743.255 195.162 716.755C206.162 690.255 249.162 684.255 275.662 690.255Z" fill="#EDE9E8"/>
<path d="M453.662 671.254C479.662 673.254 489.496 694.088 491.162 704.255C494.662 715.755 500.862 740.354 497.662 746.755C493.662 754.755 494.662 755.755 459.662 756.755C431.662 757.555 391.662 748.421 375.162 743.755C390.496 718.755 427.662 669.254 453.662 671.254Z" fill="#EDE9E8"/>
<path d="M281 742.255C292.6 738.655 324 737.588 338 737.255C348 761.421 365.462 804.755 354.662 796.755C341.162 786.755 277.162 787.755 268.162 785.255C259.162 782.755 253.162 772.255 253.662 760.755C254.162 749.255 266.5 746.755 281 742.255Z" fill="#F1B267"/>
<path d="M490.162 703.755C474.562 724.155 483.662 741.588 490.162 747.755C499.329 748.588 521.162 750.655 535.162 752.255C552.662 754.255 594.162 759.255 600.662 747.755C605.862 738.555 600.833 721.921 592 712.755C582.5 714.755 513.662 708.755 490.162 703.755Z" fill="#F1B267"/>
<path d="M191.662 427.254C207.662 423.654 242.833 453.088 258.5 467.255C259 467.755 259.7 471.154 258.5 472.754C232 525.754 177.162 671.921 107.162 688.254C62.1624 698.754 36.1624 659.255 32.6624 634.755C29.1624 610.255 50.6623 603.755 89.6623 561.755C128.662 519.755 171.662 431.754 191.662 427.254Z" fill="#EDE9E8"/>
<path d="M376.663 794.755C373.063 803.155 358.829 800.921 352.163 798.755C344.163 794.755 339.163 787.255 330.163 762.755C321.163 738.255 332.662 673.755 348.662 660.755C357.821 653.313 369.662 661.505 383.662 652.755C403.662 640.255 415.163 645.255 424.663 660.755C434.163 676.255 446.663 664.255 447.163 676.755C447.663 689.255 413.163 740.255 400.663 751.755C388.163 763.255 381.163 784.255 376.663 794.755Z" fill="#FABA6E"/>
<path d="M245.162 229.254C241.562 243.654 239.329 264.921 238.662 273.754C241.829 273.254 253.062 271.855 272.662 270.255C297.162 268.255 314.162 277.755 326.662 279.255C336.662 280.455 353.829 278.755 361.162 277.755C359.162 270.255 348.662 239.755 349.662 226.755C343.662 231.155 312.496 231.588 297.662 231.254C282.162 231.754 245.162 228.255 245.162 229.254Z" fill="white"/>
<path d="M598.162 694.255C582.562 712.255 585.662 736.755 589.162 746.755C602.163 766.255 630.162 742.755 642.162 729.755C654.162 716.755 695.662 677.255 712.662 667.755C729.662 658.255 720.662 646.255 710.662 637.255C700.662 628.255 707.162 611.255 695.662 604.255C684.162 597.255 683.662 611.755 667.162 604.255C650.662 596.755 640.662 606.755 635.662 619.255C630.662 631.755 617.662 671.755 598.162 694.255Z" fill="#FABA6E"/>
<path d="M267.662 126.255C264.862 138.255 251.496 199.921 245.162 229.255C279.329 232.088 348.062 235.455 349.662 226.255C351.662 214.755 362.662 144.755 388.162 117.255C408.562 95.2545 412.662 80.7545 412.162 76.2545L381.5 22.2545C371 13.2546 346.462 12.8546 335.662 13.2546C322.162 13.7546 304.662 23.2545 291.662 40.7545C278.662 58.2545 271.162 111.255 267.662 126.255Z" fill="#538B72"/>
<path d="M355.162 58.7545C353.829 48.4212 356 26.2545 378 22.7545C405.484 18.382 445.362 -2.5316 454.662 0.2545C457.781 1.18887 458.855 5.17876 457.487 5.69859C459.025 5.48031 460.374 6.01561 460 9.75452C459.5 14.7545 452.162 39.7545 395.662 91.7545C391.662 95.7545 357.768 79.9816 355.162 58.7545Z" fill="#FABA6E"/>
<path d="M356 60.7545C358.667 58.4212 368.597 48.2959 378 45.7545C396.5 40.7545 443.5 19.2545 458 6.25452" stroke="#E2A357"/>
<circle cx="321" cy="51.7545" r="6" fill="#524236"/>
</svg>
